<?xml version="1.0" encoding="UTF-8"?>
<svg version="1.1" xmlns="http://www.w3.org/2000/svg" width="1881" height="836">
<path d="M0 0 C620.73 0 1241.46 0 1881 0 C1881 275.88 1881 551.76 1881 836 C1260.27 836 639.54 836 0 836 C0 560.12 0 284.24 0 0 Z " fill="#F9F9F9" transform="translate(0,0)"/>
<path d="M0 0 C1.29885251 -0.00128164 1.29885251 -0.00128164 2.62394446 -0.00258917 C5.52435705 -0.0042358 8.42471176 0.00126407 11.32511902 0.00672913 C13.40464781 0.0070112 15.48417671 0.00685287 17.56370544 0.00628662 C23.20993221 0.00599943 28.85613779 0.0118835 34.50235963 0.01886058 C40.40272556 0.02510717 46.30309197 0.02569895 52.20346069 0.02688599 C63.37703655 0.02999544 74.55060264 0.03820366 85.7241742 0.04823548 C98.44472397 0.05940856 111.16527421 0.06491008 123.88582766 0.06993091 C150.05334101 0.08038657 176.22084568 0.09797858 202.38835144 0.12025452 C205.80339862 12.26736493 199.10651445 27.11445796 193.63835144 37.80775452 C182.8243266 56.57407752 165.00732484 71.00003683 144.04460144 76.76478577 C130.57669475 79.80381017 116.4375969 79.2620056 102.7150116 79.23377991 C100.77208457 79.23349725 98.82915743 79.2336573 96.88623047 79.23422241 C91.65374579 79.23450732 86.42128441 79.22866037 81.1888051 79.22164845 C75.70489656 79.21536367 70.22098739 79.21480708 64.73707581 79.21362305 C54.37128331 79.21052477 44.00550147 79.20233178 33.63971364 79.19227356 C21.8306671 79.18106557 10.02162002 79.17559019 -1.78743052 79.17057812 C-26.06217575 79.1601478 -50.33691156 79.14257767 -74.61164856 79.12025452 C-74.62777234 77.37052922 -74.63923794 75.62076062 -74.64875793 73.87098694 C-74.65564636 72.89659164 -74.66253479 71.92219635 -74.66963196 70.91827393 C-74.2585148 51.07959909 -61.77839081 31.76860815 -47.98664856 18.37025452 C-38.03372639 9.88605242 -26.30066339 4.12696043 -13.61164856 1.12025452 C-12.90714223 0.94419961 -12.2026359 0.7681447 -11.47678089 0.5867548 C-7.64777702 -0.03668286 -3.86748588 -0.01396951 0 0 Z " fill="#EC2F58" transform="translate(231.6116485595703,276.87974548339844)"/>
<path d="M0 0 C74.65625 0 74.65625 0 88.875 13.125 C97.6697033 22.62200266 101.60323893 34.55376804 101.2421875 47.37109375 C100.25734525 58.06139758 96.68026298 67.67961669 88.71875 75.13671875 C86.53647451 76.87162776 84.32621048 78.46522579 82 80 C81.05125 80.639375 80.1025 81.27875 79.125 81.9375 C77 83 77 83 74 83 C76.90653272 89.33887035 80.30770967 95.2023556 84.12744141 101.03369141 C88.36923897 107.51839784 92.42413718 114.11541866 96.48242188 120.71606445 C98.72482285 124.35585908 100.96044498 127.97939897 103.38671875 131.5 C105 134 105 134 105 136 C94.77 136 84.54 136 74 136 C72.22625 132.885625 70.4525 129.77125 68.625 126.5625 C64.64076737 119.58259144 60.63440618 112.61667677 56.5625 105.6875 C55.98072998 104.69568726 55.98072998 104.69568726 55.38720703 103.68383789 C52.99126609 99.62023535 50.50630468 95.62933127 47.93334961 91.67504883 C47 90 47 90 47 88 C37.1 88.495 37.1 88.495 27 89 C26.67 104.51 26.34 120.02 26 136 C17.42 136 8.84 136 0 136 C0 91.12 0 46.24 0 0 Z " fill="#0A1F3F" transform="translate(749,331)"/>
<path d="M0 0 C0.88643188 -0.04514236 1.77286377 -0.09028473 2.68615723 -0.13679504 C3.87060425 -0.19711411 5.05505127 -0.25743317 6.27539062 -0.31958008 C7.5100708 -0.3806192 8.74475098 -0.44165833 10.0168457 -0.50454712 C11.96026226 -0.60662519 13.90345457 -0.71667305 15.84448242 -0.85702515 C26.13624592 -1.59636242 26.13624592 -1.59636242 30.39257812 2.04931641 C32.51046608 4.93037433 34.25487923 7.87995713 36 11 C37.37087397 13.06701062 38.75668115 15.12418474 40.15625 17.171875 C41.23177046 18.79801958 42.30724818 20.42419441 43.38015747 22.05206299 C50.11487006 32.26342528 56.98327715 42.36933337 63.99853516 52.390625 C69.18345968 59.80396389 74.29362177 67.26551803 79.375 74.75 C80.4734021 76.36769287 80.4734021 76.36769287 81.59399414 78.01806641 C84.07261657 81.67223038 86.55072465 85.32608698 89 89 C89.33 59.63 89.66 30.26 90 0 C98.91 0 107.82 0 117 0 C117 44.88 117 89.76 117 136 C107.76 136 98.52 136 89 136 C81.03171708 126.9832588 81.03171708 126.9832588 79.30078125 122.9296875 C77.26448587 118.46890377 74.8663779 114.57262033 72.0625 110.5625 C71.2516323 109.35047657 70.44308455 108.13689822 69.63671875 106.921875 C66.02356354 101.52927215 62.34369257 96.18215794 58.67163086 90.82958984 C55.79491314 86.63347527 52.93583672 82.42819714 50.125 78.1875 C46.19284547 72.25967135 42.19180643 66.37927854 38.1875 60.5 C37.1987085 59.04630005 37.1987085 59.04630005 36.18994141 57.56323242 C35.56394043 56.64517822 34.93793945 55.72712402 34.29296875 54.78125 C33.45028442 53.5447168 33.45028442 53.5447168 32.59057617 52.28320312 C31.1079066 50.15489525 29.55630371 48.07507162 28 46 C27.67 75.7 27.34 105.4 27 136 C18.09 136 9.18 136 0 136 C-0.7616271 114.10191968 -1.16352958 92.23263799 -1.13037109 70.32128906 C-1.12465413 66.50154009 -1.12807774 62.6818606 -1.13382339 58.86211395 C-1.15863838 39.21995935 -0.80615966 19.62668698 0 0 Z " fill="#0B203F" transform="translate(503,331)"/>
<path d="M0 0 C1.21851151 -0.00137466 2.43702301 -0.00274933 3.69245911 -0.00416565 C5.03440882 -0.00062702 6.37635828 0.00300779 7.7183075 0.00672913 C9.13774615 0.00701134 10.55718496 0.0068526 11.97662354 0.00628662 C15.82332504 0.00599996 19.66999529 0.01187547 23.51668954 0.01886058 C27.53923143 0.02511598 31.56177406 0.02569965 35.58432007 0.02688599 C43.19859342 0.02999285 50.81285241 0.03819755 58.42711943 0.04823548 C67.09695962 0.05941663 75.7668005 0.06491211 84.4366461 0.06993091 C102.26841573 0.08038069 120.10017198 0.09796766 137.93193054 0.12025452 C137.94210039 1.55822806 137.94934929 2.99622245 137.95536804 4.43421936 C137.95971863 5.23499908 137.96406921 6.03577881 137.96855164 6.86082458 C137.75751321 19.88136775 130.45756421 32.87540344 121.68193054 42.12025452 C110.58156519 52.42445573 96.21056819 59.25394955 80.90182495 59.24050903 C79.6917276 59.2418837 78.48163025 59.24325836 77.23486328 59.24467468 C75.91568405 59.24107941 74.59650482 59.23748413 73.23735046 59.23377991 C71.8277639 59.2334977 70.41817718 59.23365644 69.0085907 59.23422241 C65.18874775 59.23450906 61.36893628 59.22863375 57.54910064 59.22164845 C53.55458597 59.21539285 49.56007057 59.21480937 45.56555176 59.21362305 C38.0044023 59.21051624 30.44326733 59.20231161 22.88212425 59.19227356 C14.27274241 59.18109223 5.66335989 59.17559688 -2.9460274 59.17057812 C-20.65338296 59.16012847 -38.36072504 59.14254161 -56.06806946 59.12025452 C-56.07918563 57.5191147 -56.08711802 55.91795257 -56.09370422 54.31678772 C-56.09846268 53.4251442 -56.10322113 52.53350067 -56.10812378 51.61483765 C-55.89993818 38.64903834 -49.14681563 26.67024067 -40.19306946 17.68275452 C-29.1027287 7.04361579 -15.68222942 -0.01367239 0 0 Z " fill="#683BFC" transform="translate(213.0680694580078,381.87974548339844)"/>
<path d="M0 0 C1.16781006 0.00523682 2.33562012 0.01047363 3.53881836 0.01586914 C4.79887695 0.0190918 6.05893555 0.02231445 7.35717773 0.02563477 C8.6976732 0.03399136 10.03816799 0.04245632 11.37866211 0.05102539 C12.72306153 0.05603879 14.06746271 0.06060197 15.41186523 0.06469727 C18.71334151 0.07653051 22.01473014 0.09301568 25.31616211 0.11352539 C25.62618164 0.9037207 25.93620117 1.69391602 26.25561523 2.50805664 C27.77447779 6.37706607 29.2948629 10.2454735 30.81616211 14.11352539 C31.10315979 14.84335632 31.39015747 15.57318726 31.68585205 16.32513428 C35.16756701 25.17470238 38.66918363 34.01582973 42.21459961 42.84008789 C42.70292267 44.05558571 42.70292267 44.05558571 43.20111084 45.29563904 C43.52847229 46.11041214 43.85583374 46.92518524 44.19311523 47.76464844 C51.93052108 67.02260793 59.4807613 86.34552653 66.87858582 105.7364502 C68.58268583 110.20204039 70.30035589 114.66204008 72.03100586 119.11743164 C72.41579102 120.11234619 72.80057617 121.10726074 73.19702148 122.13232422 C73.87303477 123.87968112 74.55240329 125.625746 75.23608398 127.37011719 C76.41222655 130.42601152 77.31616211 132.80872582 77.31616211 136.11352539 C68.07616211 136.11352539 58.83616211 136.11352539 49.31616211 136.11352539 C48.03741211 132.97852539 46.75866211 129.84352539 45.44116211 126.61352539 C45.04171387 125.6422168 44.64226562 124.6709082 44.23071289 123.67016602 C43.91086426 122.87803711 43.59101562 122.0859082 43.26147461 121.26977539 C42.93679199 120.4737793 42.61210938 119.6777832 42.27758789 118.85766602 C41.04924646 115.35168388 40.21716591 111.71754059 39.31616211 108.11352539 C20.50616211 108.11352539 1.69616211 108.11352539 -17.68383789 108.11352539 C-18.67383789 111.41352539 -19.66383789 114.71352539 -20.68383789 118.11352539 C-21.26498626 119.761291 -21.86542264 121.40281515 -22.50805664 123.02758789 C-22.78480225 123.73351074 -23.06154785 124.43943359 -23.34667969 125.16674805 C-23.68481689 126.01543457 -24.0229541 126.86412109 -24.37133789 127.73852539 C-25.46446289 130.50227539 -26.55758789 133.26602539 -27.68383789 136.11352539 C-37.25383789 136.11352539 -46.82383789 136.11352539 -56.68383789 136.11352539 C-55.92806157 132.33464377 -55.13611434 129.42164692 -53.74243164 125.90649414 C-53.12718628 124.34656738 -53.12718628 124.34656738 -52.49951172 122.75512695 C-52.04471436 121.61527344 -51.58991699 120.47541992 -51.12133789 119.30102539 C-50.63882568 118.08253906 -50.15631348 116.86405273 -49.65917969 115.60864258 C-48.00759869 111.4408589 -46.34605197 107.27707733 -44.68383789 103.11352539 C-44.07412381 101.58504773 -43.46442356 100.05656455 -42.85473633 98.52807617 C-39.19236608 89.34969659 -35.519964 80.17535372 -31.84365845 71.00254822 C-29.36411428 64.8147298 -26.88987732 58.62480762 -24.41821289 52.43383789 C-12.4799914 22.53499161 -12.4799914 22.53499161 -7.24633789 9.67602539 C-6.88677002 8.78834473 -6.52720215 7.90066406 -6.15673828 6.98608398 C-3.35688369 0.14199499 -3.35688369 0.14199499 0 0 Z " fill="#0A1F3F" transform="translate(1500.683837890625,330.886474609375)"/>
<path d="M0 0 C2.01388555 1.68441552 3.42473497 3.44169997 4.91015625 5.59765625 C8.0487497 4.19885961 10.23508114 2.5160064 12.72265625 0.16015625 C20.6252492 -6.90517313 29.01671126 -7.72103837 39.33984375 -7.61328125 C49.5543912 -7.00979595 57.53681717 -2.77568283 64.72265625 4.41015625 C69.93518329 12.0055528 72.04098265 19.12883824 72.02368164 28.31567383 C72.02382767 28.96989319 72.02397369 29.62411255 72.02412415 30.29815674 C72.02343119 32.44620151 72.01566789 34.594158 72.0078125 36.7421875 C72.00594613 38.23719739 72.00452326 39.7322079 72.00352478 41.22721863 C71.99971689 45.15137436 71.98990143 49.07549275 71.9788208 52.99963379 C71.96856946 57.00821426 71.96401919 61.0168008 71.95898438 65.02539062 C71.94827754 72.8828315 71.93069481 80.74023492 71.91015625 88.59765625 C63.66015625 88.59765625 55.41015625 88.59765625 46.91015625 88.59765625 C46.87277344 84.65957031 46.83539062 80.72148437 46.796875 76.6640625 C46.75060575 72.83140651 46.69939154 68.99884608 46.64770508 65.16625977 C46.61292962 62.51159822 46.58648438 59.85722729 46.5637207 57.20239258 C46.53001836 53.37681773 46.47769229 49.55187095 46.421875 45.7265625 C46.41548508 44.54808243 46.40909515 43.36960236 46.4025116 42.15541077 C46.26123993 34.15848579 45.63347104 27.153095 40.66015625 20.66015625 C36.27724014 17.37296917 32.19862657 16.30599786 26.78515625 16.78515625 C22.30423121 17.72470505 19.345786 18.40541083 16.75390625 22.36328125 C13.17823858 29.05488789 12.76453233 35.4204625 12.84765625 42.93359375 C12.85144287 43.73060699 12.85522949 44.52762024 12.85913086 45.3487854 C12.87528081 48.72754558 12.90308297 52.10617989 12.93066406 55.48486328 C13.01330524 66.58270337 12.72739825 77.52658107 11.91015625 88.59765625 C3.66015625 88.59765625 -4.58984375 88.59765625 -13.08984375 88.59765625 C-13.14591797 82.58224609 -13.14591797 82.58224609 -13.203125 76.4453125 C-13.24129281 73.22623739 -13.28236503 70.00722815 -13.32538605 66.78821564 C-13.36985116 63.40204677 -13.40932506 60.01599604 -13.4362793 56.62963867 C-13.4699749 52.73457014 -13.5223008 48.84011922 -13.578125 44.9453125 C-13.58451492 43.74495865 -13.59090485 42.5446048 -13.5974884 41.30787659 C-13.78511981 29.66714823 -13.78511981 29.66714823 -19.65234375 20.09765625 C-24.96389843 16.82900721 -29.93717966 17.00249659 -36.08984375 17.59765625 C-39.64305628 19.21273223 -39.64305628 19.21273223 -42.08984375 21.59765625 C-42.95609375 22.27828125 -42.95609375 22.27828125 -43.83984375 22.97265625 C-46.88516925 26.9315794 -47.34269011 31.64988167 -47.39282227 36.49536133 C-47.40946426 37.63286331 -47.42610626 38.7703653 -47.44325256 39.94233704 C-47.45166672 41.15503769 -47.46008087 42.36773834 -47.46875 43.6171875 C-47.48574448 44.8715007 -47.50273895 46.1258139 -47.52024841 47.4181366 C-47.56428996 50.73688487 -47.60065132 54.0555151 -47.63244629 57.37438965 C-47.67832407 62.06827783 -47.73399006 66.7620216 -47.79515076 71.45573425 C-47.82720319 73.95299638 -47.85406309 76.4503313 -47.87538147 78.94770813 C-47.88887131 80.06944931 -47.90236115 81.19119049 -47.91625977 82.34692383 C-47.92577164 83.33920486 -47.93528351 84.3314859 -47.94508362 85.35383606 C-48.08984375 87.59765625 -48.08984375 87.59765625 -49.08984375 88.59765625 C-57.33984375 88.59765625 -65.58984375 88.59765625 -74.08984375 88.59765625 C-74.08984375 57.57765625 -74.08984375 26.55765625 -74.08984375 -5.40234375 C-66.16984375 -5.40234375 -58.24984375 -5.40234375 -50.08984375 -5.40234375 C-48.50711774 -3.81961774 -48.74248628 -2.02200372 -48.52734375 0.16015625 C-48.40166016 1.39958984 -48.40166016 1.39958984 -48.2734375 2.6640625 C-48.21285156 3.30214844 -48.15226562 3.94023437 -48.08984375 4.59765625 C-47.45046875 3.71078125 -46.81109375 2.82390625 -46.15234375 1.91015625 C-34.43459543 -12.17784885 -13.61861163 -9.26856508 0 0 Z " fill="#0A1F3F" transform="translate(1253.08984375,378.40234375)"/>
<path d="M0 0 C10.35807848 9.87025688 15.83423017 22.07611727 16.25 36.4375 C15.72222521 50.44906952 11.28040597 64.11438498 0.8125 73.875 C-10.01824256 83.14130197 -23.56956551 87.31055524 -37.703125 87.15234375 C-52.81822005 85.94923641 -65.80491762 80.07307257 -76.1875 68.875 C-84.65205058 57.43491963 -87.0630859 44.90029417 -86.1875 30.875 C-84.04690697 17.23925386 -77.9720741 5.3934897 -66.734375 -2.9453125 C-46.04118875 -15.89482213 -19.12645422 -16.13074452 0 0 Z " fill="#0B1F3F" transform="translate(1764.1875,383.125)"/>
<path d="M0 0 C10.30522704 8.05561086 16.17971477 19.96468586 17.80078125 32.8125 C18.39003855 38.61165415 18.27786383 42.99245321 17.43359375 48.90234375 C-5.33640625 48.90234375 -28.10640625 48.90234375 -51.56640625 48.90234375 C-48.47366 58.18058251 -47.06274301 61.09026448 -38.87890625 65.27734375 C-30.02056073 66.9487297 -23.33119599 66.50370063 -15.56640625 61.90234375 C-14.90640625 61.90234375 -14.24640625 61.90234375 -13.56640625 61.90234375 C-13.25703125 61.28359375 -12.94765625 60.66484375 -12.62890625 60.02734375 C-11.94140625 58.65234375 -11.25390625 57.27734375 -10.56640625 55.90234375 C-4.50270283 56.50732333 1.08873617 57.76564655 6.93359375 59.46484375 C8.16722656 59.81579102 8.16722656 59.81579102 9.42578125 60.17382812 C11.42988433 60.74476447 13.43195966 61.3228108 15.43359375 61.90234375 C10.73134421 73.22082379 3.79750193 80.57048215 -7.39453125 85.68359375 C-22.49245498 91.48476641 -36.46722229 90.96656954 -51.56640625 85.90234375 C-57.45213588 83.16566691 -62.26829325 79.79741689 -66.56640625 74.90234375 C-67.0459375 74.42539062 -67.52546875 73.9484375 -68.01953125 73.45703125 C-76.16980723 64.93628818 -79.42724137 52.70743697 -79.87890625 41.15234375 C-79.49404801 26.73147908 -74.62505008 14.40322882 -64.76171875 3.90234375 C-46.77912973 -12.4803708 -19.78202611 -13.58040399 0 0 Z " fill="#0A1F3F" transform="translate(1419.56640625,380.09765625)"/>
<path d="M0 0 C8.43001373 7.6810333 12.68530488 18.24712208 14.81640625 29.2578125 C14.81640625 34.8678125 14.81640625 40.4778125 14.81640625 46.2578125 C-8.28359375 46.2578125 -31.38359375 46.2578125 -55.18359375 46.2578125 C-50.96076035 56.07682287 -50.96076035 56.07682287 -43.12109375 62.0703125 C-36.24296237 64.69841947 -27.6518217 64.23823787 -20.91015625 61.39453125 C-18.25623675 59.64726751 -16.65218986 57.2661983 -14.99609375 54.5859375 C-13.18359375 53.2578125 -13.18359375 53.2578125 -9.55859375 53.39453125 C-4.99761414 54.17662231 -0.59907681 55.45434417 3.81640625 56.8203125 C4.59113281 57.05427734 5.36585938 57.28824219 6.1640625 57.52929688 C8.04992765 58.09971288 9.93342715 58.67794053 11.81640625 59.2578125 C8.94993358 69.0836815 2.45391275 75.66572534 -6.24609375 80.7890625 C-21.28611886 88.30907506 -36.19223193 88.80834979 -52.18359375 84.2578125 C-63.9124956 80.03341989 -72.8658749 71.45671709 -78.18359375 60.2578125 C-84.08929426 45.84232307 -83.57221886 30.61319893 -78 16.1953125 C-72.00459851 2.87974659 -62.36448666 -4.39816118 -49.18359375 -9.7421875 C-32.3606895 -15.93279418 -13.58824434 -10.84142572 0 0 Z " fill="#0A1F3E" transform="translate(945.18359375,382.7421875)"/>
<path d="M0 0 C8.25 0 16.5 0 25 0 C25 25.41 25 50.82 25 77 C25.66 77 26.32 77 27 77 C27.27239502 76.40541992 27.54479004 75.81083984 27.82543945 75.19824219 C28.97029488 73.05559444 30.12644698 71.57993363 31.79296875 69.828125 C32.33735596 69.25022217 32.88174316 68.67231934 33.44262695 68.0769043 C34.30633911 67.17258667 34.30633911 67.17258667 35.1875 66.25 C36.37322011 64.99166162 37.55812326 63.73255289 38.7421875 62.47265625 C39.30905273 61.8708252 39.87591797 61.26899414 40.45996094 60.64892578 C42.2842751 58.69562556 44.05975859 56.70519069 45.8125 54.6875 C46.30838623 54.13602295 46.80427246 53.5845459 47.31518555 53.01635742 C49.05770384 51.02023675 49.05770384 51.02023675 50.46362305 48.69091797 C53.43523928 44.45268988 55.55102552 42.28204182 60.74145508 41.27172852 C65.17089774 41.00348461 69.57313708 41.21309898 74 41.4375 C75.55326906 41.48270781 77.1066649 41.5237614 78.66015625 41.56054688 C82.44326573 41.6591083 86.22022177 41.81399981 90 42 C90 44 90 44 88 46.125 C87.00246673 47.0859007 86.00211364 48.04387708 85 49 C83.70388095 50.26629204 82.41253939 51.53748531 81.125 52.8125 C80.50882813 53.41707031 79.89265625 54.02164063 79.2578125 54.64453125 C77.34758421 56.63738187 75.53132759 58.66621258 73.72265625 60.75 C69.40251913 65.72185209 64.87549812 70.48733449 60.34179688 75.26367188 C57.06556942 78.73360086 53.90833404 82.20812144 51 86 C56.57907356 98.48102023 69.57249719 110.17057019 78.75 120.25 C91 133.75411335 91 133.75411335 91 136 C86.46557471 136.27422093 81.93606624 136.47248476 77.39526367 136.60424805 C75.85534567 136.65920483 74.31599226 136.73401213 72.77807617 136.82983398 C60.0448432 137.60267221 60.0448432 137.60267221 55.15820312 133.77270508 C52.86337008 130.95678199 50.92562237 128.0772226 49 125 C47.87084427 123.61713617 46.71460024 122.25560693 45.5234375 120.92578125 C45.00112549 120.32451416 44.47881348 119.72324707 43.94067383 119.10375977 C43.42400146 118.51264404 42.9073291 117.92152832 42.375 117.3125 C41.2616995 116.03647513 40.14841809 114.7604336 39.03515625 113.484375 C38.51324707 112.88689453 37.99133789 112.28941406 37.45361328 111.67382812 C36.18583974 110.21399349 34.9333639 108.74090174 33.68359375 107.265625 C33.06613281 106.53859375 32.44867187 105.8115625 31.8125 105.0625 C31.30332031 104.45535156 30.79414062 103.84820312 30.26953125 103.22265625 C29.05366599 101.76877191 29.05366599 101.76877191 27 102 C25.52793987 104.94412027 25.76192808 107.96285915 25.68359375 111.1953125 C25.66281265 111.90275604 25.64203156 112.61019958 25.62062073 113.33908081 C25.55518922 115.60095425 25.49627026 117.86294462 25.4375 120.125 C25.39430867 121.65756422 25.35069418 123.19011657 25.30664062 124.72265625 C25.19871711 128.48165268 25.09959717 132.24073675 25 136 C16.75 136 8.5 136 0 136 C-0.76407127 132.17964367 -1.12547567 129.28084848 -1.12698364 125.47015381 C-1.12980347 124.37088562 -1.13262329 123.27161743 -1.13552856 122.13903809 C-1.13350433 120.9429895 -1.1314801 119.74694092 -1.12939453 118.51464844 C-1.13114685 117.24756042 -1.13289917 115.98047241 -1.13470459 114.67498779 C-1.13925493 111.20837538 -1.13749972 107.74179279 -1.1343255 104.27517986 C-1.13179171 100.64815377 -1.13414208 97.0211302 -1.13571167 93.394104 C-1.13752945 87.30797873 -1.13513634 81.22186561 -1.13037109 75.13574219 C-1.12491944 68.09141818 -1.12669924 61.04712307 -1.1321975 54.00279975 C-1.13672812 47.95687097 -1.13737973 41.91095092 -1.13475883 35.86502099 C-1.13319703 32.25280041 -1.13299985 28.64059344 -1.13629532 25.02837372 C-1.13970717 21.00815604 -1.13498521 16.98798866 -1.12939453 12.96777344 C-1.13141876 11.76362793 -1.13344299 10.55948242 -1.13552856 9.31884766 C-1.13270874 8.23085876 -1.12988892 7.14286987 -1.12698364 6.02191162 C-1.12660662 5.0706628 -1.12622959 4.11941399 -1.12584114 3.13933945 C-1 1 -1 1 0 0 Z " fill="#0B2040" transform="translate(1589,331)"/>
<path d="M0 0 C1.12591553 0.00523682 2.25183105 0.01047363 3.41186523 0.01586914 C4.62680664 0.0190918 5.84174805 0.02231445 7.09350586 0.02563477 C8.37290039 0.03401367 9.65229492 0.04239258 10.97045898 0.05102539 C12.2537207 0.05553711 13.53698242 0.06004883 14.85913086 0.06469727 C18.04211921 0.07652994 21.22501661 0.09301471 24.40795898 0.11352539 C27.96192483 8.54833478 31.38286831 17.02845152 34.72045898 25.55102539 C35.19394775 26.75791016 35.66743652 27.96479492 36.15527344 29.20825195 C40.30902227 39.81708474 44.38235721 50.45548517 48.40795898 61.11352539 C52.6217905 51.04022402 56.68290418 40.93511084 60.45825195 30.6887207 C61.63682438 27.49294127 62.82126072 24.29935392 64.00561523 21.10571289 C66.4760394 14.44275038 68.94297121 7.77850124 71.40795898 1.11352539 C77.41656448 0.05514412 83.25423459 -0.00310032 89.34545898 0.05102539 C90.31547852 0.05553711 91.28549805 0.06004883 92.28491211 0.06469727 C94.65932658 0.07639389 97.0336092 0.09278453 99.40795898 0.11352539 C100.52810547 3.47396484 100.38280493 3.83888485 99.06298828 6.91845703 C98.7399321 7.68519241 98.41687592 8.4519278 98.08403015 9.24189758 C97.5386132 10.49513069 97.5386132 10.49513069 96.98217773 11.77368164 C96.60789139 12.65432785 96.23360504 13.53497406 95.84797668 14.44230652 C94.606271 17.35754168 93.35097122 20.26671273 92.09545898 23.17602539 C91.22744651 25.20594626 90.36026904 27.23622437 89.49389648 29.2668457 C87.69906437 33.46891691 85.89847956 37.66845203 84.09301758 41.8659668 C81.55800182 47.76018334 79.03777741 53.66061949 76.52124023 59.56274414 C72.17225642 69.75589044 67.79862667 79.93826963 63.40795898 90.11352539 C63.10935974 90.80609436 62.8107605 91.49866333 62.50311279 92.21221924 C60.70950872 96.37074792 58.90612814 100.52488934 57.09545898 104.67602539 C56.47477539 106.11026855 56.47477539 106.11026855 55.84155273 107.57348633 C50.87403813 118.88700085 45.5022501 130.11005804 33.72045898 135.61352539 C24.58462274 139.07884259 15.6645743 138.98705137 6.40795898 136.11352539 C6.37908387 132.46770852 6.36120313 128.82192076 6.34545898 125.17602539 C6.33708008 124.13510742 6.32870117 123.09418945 6.32006836 122.02172852 C6.3168457 121.03237305 6.31362305 120.04301758 6.31030273 119.02368164 C6.30506592 118.10723877 6.2998291 117.1907959 6.29443359 116.24658203 C6.40795898 114.11352539 6.40795898 114.11352539 7.40795898 113.11352539 C8.76212705 113.09278321 10.11718477 113.12263721 11.47045898 113.17602539 C17.33646027 113.21332906 22.18894089 112.71328262 27.09545898 109.17602539 C30.34573398 104.87160715 33.33544023 100.44930618 34.40795898 95.11352539 C33.8043876 91.95546093 32.6231043 89.08199226 31.40795898 86.11352539 C31.04814941 85.20731445 30.68833984 84.30110352 30.31762695 83.36743164 C29.01960642 80.14651595 27.68577638 76.94206733 26.34545898 73.73852539 C25.8327593 72.50620688 25.32031678 71.27378135 24.80810547 70.04125977 C21.88252605 63.00933543 18.9361533 55.98611566 15.98954773 48.96298218 C15.18810775 47.05275928 14.3868494 45.14246017 13.58576965 43.23208618 C11.60669912 38.51250471 9.62566914 33.79377113 7.64013672 29.0769043 C3.74540396 19.8089662 -0.07493172 10.53292249 -3.59204102 1.11352539 C-2.59204102 0.11352539 -2.59204102 0.11352539 0 0 Z " fill="#0B203F" transform="translate(634.592041015625,372.886474609375)"/>
<path d="M0 0 C4.14581887 -0.02886751 8.29161216 -0.04675327 12.4375 -0.0625 C14.21350586 -0.07506836 14.21350586 -0.07506836 16.02539062 -0.08789062 C17.15009766 -0.09111328 18.27480469 -0.09433594 19.43359375 -0.09765625 C20.47572021 -0.10289307 21.51784668 -0.10812988 22.59155273 -0.11352539 C25 0 25 0 26 1 C26.10233683 2.76793558 26.13570861 4.53990667 26.1418457 6.31079102 C26.14888016 7.44609756 26.15591461 8.58140411 26.16316223 9.75111389 C26.16732651 10.98953537 26.17149078 12.22795685 26.17578125 13.50390625 C26.19899013 16.10742987 26.22310789 18.71094551 26.24804688 21.31445312 C26.28436498 25.43334881 26.31414747 29.55209843 26.32592773 33.67114258 C26.33801259 37.63650804 26.38168493 41.60126441 26.42578125 45.56640625 C26.42387283 46.79065811 26.42196442 48.01490997 26.41999817 49.27626038 C26.52010734 56.30215107 27.13606587 61.0616466 31 67 C36.86602254 71.66887508 41.72418438 72.61419223 49 72 C55.20437119 70.87601971 58.28112734 68.11197523 61.87109375 63.03515625 C63.97241521 59.24696081 64.13485733 55.70465229 64.18945312 51.42114258 C64.20617065 50.30351028 64.22288818 49.18587799 64.2401123 48.03437805 C64.25368774 46.83322861 64.26726318 45.63207916 64.28125 44.39453125 C64.29965942 43.1595842 64.31806885 41.92463715 64.33703613 40.65226746 C64.40581468 36.03324373 64.46639249 31.41413051 64.52606201 26.79498291 C64.58496392 22.26557743 64.65107446 17.73631281 64.71875 13.20703125 C64.73232544 11.99980911 64.74590088 10.79258698 64.7598877 9.54878235 C64.77660522 8.44060654 64.79332275 7.33243073 64.81054688 6.19067383 C64.82933899 4.719851 64.82933899 4.719851 64.84851074 3.21931458 C65 1 65 1 66 0 C67.84159023 -0.09959621 69.68696967 -0.13080411 71.53125 -0.1328125 C72.65144531 -0.13410156 73.77164062 -0.13539063 74.92578125 -0.13671875 C76.10527344 -0.13285156 77.28476563 -0.12898438 78.5 -0.125 C80.26923828 -0.13080078 80.26923828 -0.13080078 82.07421875 -0.13671875 C83.75451172 -0.13478516 83.75451172 -0.13478516 85.46875 -0.1328125 C86.50451172 -0.13168457 87.54027344 -0.13055664 88.60742188 -0.12939453 C91 0 91 0 92 1 C92.09523905 3.89143151 92.12553027 6.75892064 92.11352539 9.65063477 C92.11367142 10.55786285 92.11381744 11.46509094 92.1139679 12.39981079 C92.11326841 15.41369985 92.10547434 18.42752793 92.09765625 21.44140625 C92.0957922 23.52505967 92.09436824 25.60871354 92.09336853 27.69236755 C92.08954234 33.18823446 92.0797112 38.68407513 92.06866455 44.17993164 C92.0584526 49.78336227 92.05387137 55.38679713 92.04882812 60.99023438 C92.03808902 71.993503 92.02049141 82.99674521 92 94 C83.42 94 74.84 94 66 94 C65.67 90.7 65.34 87.4 65 84 C64.05125 85.051875 63.1025 86.10375 62.125 87.1875 C55.14564993 94.06913917 47.91153171 96.68164075 38.171875 97.0703125 C27.32367262 96.82983511 17.74097564 93.35984002 9.78515625 85.91015625 C0.30400182 75.76511355 -0.44362002 63.8578409 -0.29296875 50.5859375 C-0.28736115 49.12049803 -0.28309657 47.65505286 -0.28010559 46.18960571 C-0.26874821 42.36566148 -0.23936178 38.54206876 -0.20599365 34.71826172 C-0.17509421 30.80310824 -0.16155815 26.88789698 -0.14648438 22.97265625 C-0.11448141 15.31494534 -0.06339818 7.65752226 0 0 Z " fill="#0C2140" transform="translate(1065,373)"/>
<path d="M0 0 C6.02943402 4.52883497 11.2012147 10.7879765 12.7421875 18.30859375 C5.62543594 21.70522518 -3.26691876 25.22104874 -11.2578125 24.30859375 C-12.65081432 22.34968494 -13.98026696 20.34468195 -15.2578125 18.30859375 C-19.27431026 14.65723215 -23.47071056 14.98631732 -28.63671875 15.0078125 C-31.36098884 15.32043366 -33.02004339 15.72628104 -35.2578125 17.30859375 C-36.07651435 20.87066036 -36.07651435 20.87066036 -36.2578125 24.30859375 C-29.78495301 29.4731093 -21.93842119 30.95455504 -14.0859375 33.1328125 C-3.23304451 36.2856784 5.88428842 40.23136877 11.7421875 50.30859375 C14.99058985 56.80539845 14.88101813 65.68283265 12.6796875 72.55859375 C9.36116582 79.94844989 3.93513604 84.98186462 -3.390625 88.27734375 C-18.45527477 93.6956919 -33.93521043 94.00503101 -48.73828125 87.6875 C-57.17521023 83.07007995 -63.0134125 76.34168638 -66.2578125 67.30859375 C-66.2578125 66.64859375 -66.2578125 65.98859375 -66.2578125 65.30859375 C-63.76042392 64.48724386 -61.26036445 63.67643627 -58.7578125 62.87109375 C-58.06171875 62.64099609 -57.365625 62.41089844 -56.6484375 62.17382812 C-51.84093422 60.63809791 -47.28230119 59.80085785 -42.2578125 59.30859375 C-41.7009375 60.40171875 -41.1440625 61.49484375 -40.5703125 62.62109375 C-38.27125309 66.64241675 -35.77064853 68.35544905 -31.4453125 69.99609375 C-24.85211493 70.93797912 -20.02242247 70.65206753 -14.2578125 67.30859375 C-12.54270673 64.98200703 -12.54270673 64.98200703 -12.2578125 62.30859375 C-13.14289978 59.70802831 -13.75496923 58.5828719 -16.19140625 57.25390625 C-17.01769531 56.98320312 -17.84398437 56.7125 -18.6953125 56.43359375 C-20.16097656 55.93859375 -20.16097656 55.93859375 -21.65625 55.43359375 C-24.38600815 54.58091441 -27.11885674 53.75025249 -29.859375 52.93359375 C-53.95825018 45.69435865 -53.95825018 45.69435865 -60.2578125 35.30859375 C-63.31811705 27.67893793 -63.7619443 18.95708463 -60.5078125 11.30859375 C-55.78845335 2.37435867 -48.78361684 -2.46774692 -39.1953125 -5.56640625 C-25.87084475 -8.74610878 -11.49773072 -7.78059288 0 0 Z " fill="#0B1F3F" transform="translate(1036.2578125,377.69140625)"/>
<path d="M0 0 C0.92731934 -0.00014603 1.85463867 -0.00029205 2.81005859 -0.0004425 C5.86713013 0.0002527 8.92414031 0.00802675 11.98120117 0.01586914 C14.10397814 0.01773471 16.22675553 0.01915796 18.34953308 0.02015686 C23.93082879 0.02397106 29.51209838 0.03379201 35.09338379 0.04486084 C40.79101203 0.05509853 46.4886445 0.05965953 52.1862793 0.06469727 C63.36142096 0.07541524 74.53654327 0.09247852 85.71166992 0.11352539 C87.63603237 9.04569771 84.21877875 16.41717581 79.71166992 24.11352539 C73.0446193 33.82837059 62.75542006 38.78403158 51.6217804 41.65184021 C47.60450955 42.28917492 43.66807317 42.24419521 39.60693359 42.22705078 C38.6991214 42.22719681 37.7913092 42.22734283 36.85598755 42.22749329 C33.86384671 42.2267982 30.8717686 42.2190247 27.87963867 42.21118164 C25.80170221 42.20931603 23.72376531 42.2078928 21.64582825 42.20689392 C16.18289979 42.20308004 10.71999801 42.19325938 5.25708008 42.18218994 C-0.31990193 42.17195155 -5.89688825 42.1673911 -11.47387695 42.16235352 C-22.4120397 42.15163611 -33.35018267 42.13457323 -44.28833008 42.11352539 C-44.30540122 40.67997341 -44.31754977 39.24636228 -44.32763672 37.81274414 C-44.33493301 37.01441162 -44.34222931 36.2160791 -44.3497467 35.39355469 C-44.10704237 26.38340515 -39.41986765 18.41471025 -33.28833008 12.11352539 C-23.52715798 2.96923034 -13.07945543 -0.05402951 0 0 Z " fill="#07D4A8" transform="translate(201.288330078125,467.886474609375)"/>
<path d="M0 0 C5.11328349 3.63977814 9.49880056 9.07826191 10.81640625 15.29296875 C11.57752392 24.15153277 11.78032569 32.27200412 6.1171875 39.4453125 C0.46833195 45.58247777 -4.74499779 48.30179896 -13.05859375 48.73046875 C-19.56565809 48.48058149 -25.36339854 46.78996229 -30.296875 42.421875 C-36.67414232 35.43724888 -38.24208206 28.66279586 -38.18359375 19.29296875 C-37.17954266 11.76798368 -33.92582771 6.22627689 -28.18359375 1.29296875 C-19.22817212 -4.47124853 -9.48831507 -5.30962278 0 0 Z " fill="#F7F7F7" transform="translate(1742.18359375,397.70703125)"/>
<path d="M0 0 C2.00378386 -0.00960932 4.00742712 -0.04076003 6.01098633 -0.07226562 C14.53969469 -0.10667292 21.24382601 0.29271713 28.28637695 5.49023438 C32.25648598 9.55267152 34.08618363 13.58138231 34.34887695 19.24023438 C34.10636502 24.69148089 32.16600306 28.78319136 28.72387695 32.99023438 C23.1547841 37.54676489 18.39396726 38.61878968 11.2902832 38.53320312 C10.5899144 38.52895828 9.88954559 38.52471344 9.16795349 38.52033997 C6.95701695 38.50370593 4.74703238 38.46608617 2.53637695 38.42773438 C1.0266246 38.41266763 -0.4831422 38.39898273 -1.99291992 38.38671875 C-5.67095739 38.35385358 -9.34844712 38.3021802 -13.02612305 38.24023438 C-13.05077232 32.98917995 -13.06895873 27.73815892 -13.08105469 22.48706055 C-13.08609523 20.69929417 -13.09292759 18.91153193 -13.1015625 17.1237793 C-13.11364035 14.55972269 -13.11935399 11.9957204 -13.1237793 9.43164062 C-13.12894058 8.62747208 -13.13410187 7.82330353 -13.13941956 6.99476624 C-13.1396152 5.07621723 -13.08814287 3.15778069 -13.02612305 1.24023438 C-10.44375275 -1.34213592 -3.50030389 0.01015194 0 0 Z " fill="#F7F6F7" transform="translate(788.026123046875,355.759765625)"/>
<path d="M0 0 C1.57334379 2.36001569 2.58918114 4.21089509 3.62890625 6.7890625 C4.09200195 7.93689209 4.09200195 7.93689209 4.56445312 9.10791016 C4.89380859 9.9385498 5.22316406 10.76918945 5.5625 11.625 C5.90603516 12.48786621 6.24957031 13.35073242 6.60351562 14.23974609 C9.5265756 21.65628921 12.28887682 29.12868217 15 36.625 C15.39775635 37.72150879 15.7955127 38.81801758 16.20532227 39.94775391 C16.57069092 40.96788574 16.93605957 41.98801758 17.3125 43.0390625 C17.63863281 43.94865723 17.96476562 44.85825195 18.30078125 45.79541016 C19 48 19 48 19 50 C6.79 50 -5.42 50 -18 50 C-16.60303062 43.71363781 -15.10239347 38.10015434 -12.8125 32.16796875 C-12.50932861 31.36893631 -12.20615723 30.56990387 -11.89379883 29.74665833 C-11.25793981 28.0742243 -10.61915266 26.40290081 -9.97753906 24.73266602 C-8.99674627 22.17902845 -8.02497268 19.62209939 -7.0546875 17.06445312 C-6.4328098 15.43209418 -5.8104316 13.7999258 -5.1875 12.16796875 C-4.89786377 11.40751755 -4.60822754 10.64706635 -4.30981445 9.86357117 C-3.01379686 6.49469324 -1.71088308 3.18234685 0 0 Z " fill="#F3F2F3" transform="translate(1511,365)"/>
<path d="M0 0 C3.87596772 3.20188637 6.08197171 6.35635255 8 11 C8 11.99 8 12.98 8 14 C-6.19 14 -20.38 14 -35 14 C-33.83646499 8.18232493 -31.98422542 4.92910805 -27.75 0.8125 C-18.44612728 -5.31959793 -9.60896321 -5.64044303 0 0 Z " fill="#F7F6F7" transform="translate(925,397)"/>
<path d="M0 0 C5.60381039 4.80326605 6.9145319 7.40172329 8 15 C-5.86 15 -19.72 15 -34 15 C-32.72741438 7.36448628 -29.52335851 3.60057414 -23.375 -0.9375 C-15.93604853 -4.26545198 -7.05624718 -4.21688078 0 0 Z " fill="#F7F7F7" transform="translate(1402,396)"/>
</svg>
