<?xml version="1.0" encoding="UTF-8"?>
<svg version="1.1" xmlns="http://www.w3.org/2000/svg" width="1536" height="1024">
<path d="M0 0 C4.9298357 0.07259088 9.85978774 0.13623812 14.78973389 0.20080566 C24.34520018 0.32718814 33.90050687 0.46286822 43.45574951 0.60510254 C43.32879037 2.8099533 43.19291971 5.01429183 43.05340576 7.21838379 C42.9787207 8.44597412 42.90403564 9.67356445 42.8270874 10.93835449 C41.42216188 24.81118579 33.98716766 35.17705685 23.49090576 43.94494629 C22.48350342 44.76672363 22.48350342 44.76672363 21.45574951 45.60510254 C20.54824951 46.43010254 19.64074951 47.25510254 18.70574951 48.10510254 C16.06616632 49.86482467 14.56755573 49.96073754 11.45574951 49.60510254 C11.45574951 50.26510254 11.45574951 50.92510254 11.45574951 51.60510254 C8.08477568 53.10331313 6.25132832 53.60510254 2.45574951 53.60510254 C1.28050217 53.76808838 0.10525482 53.93107422 -1.10560608 54.09899902 C-6.25883485 54.77173507 -11.372926 54.72953491 -16.56256104 54.70275879 C-17.63834412 54.70129852 -18.7141272 54.69983826 -19.82250977 54.69833374 C-22.14634858 54.69454296 -24.47018455 54.6884426 -26.79401207 54.68026733 C-30.4715724 54.66746115 -34.14909652 54.66097754 -37.82667542 54.65612793 C-45.62838341 54.64472364 -53.43006142 54.62547123 -61.23175049 54.60510254 C-70.28422139 54.58150309 -79.33667528 54.56111957 -88.38916969 54.54916382 C-92.01255703 54.54268022 -95.63589204 54.53017462 -99.25926208 54.51745605 C-101.47754877 54.51382396 -103.69583594 54.51047218 -105.91412354 54.50744629 C-106.92151077 54.50227997 -107.92889801 54.49711365 -108.96681213 54.49179077 C-109.89609528 54.49172028 -110.82537842 54.49164978 -111.78282166 54.49157715 C-112.58637431 54.48935654 -113.38992697 54.48713593 -114.2178297 54.48484802 C-116.73813142 54.6151244 -119.0843109 55.05456231 -121.54425049 55.60510254 C-121.54425049 54.94510254 -121.54425049 54.28510254 -121.54425049 53.60510254 C-122.53425049 53.27510254 -123.52425049 52.94510254 -124.54425049 52.60510254 C-124.32768799 51.58416504 -124.32768799 51.58416504 -124.10675049 50.54260254 C-123.71768565 48.51081947 -123.38805217 46.46708619 -123.10675049 44.41760254 C-122.42182482 39.77532859 -121.49627139 35.19883445 -120.54425049 30.60510254 C-119.88425049 30.60510254 -119.22425049 30.60510254 -118.54425049 30.60510254 C-118.14206299 29.02729004 -118.14206299 29.02729004 -117.73175049 27.41760254 C-115.82829035 21.30649367 -113.25156224 18.08237221 -108.36065674 14.13244629 C-106.4673885 12.60598433 -106.4673885 12.60598433 -104.71221924 10.61682129 C-102.09912992 8.19206273 -99.53820591 6.94833829 -96.29425049 5.48010254 C-95.21659424 4.98252441 -94.13893799 4.48494629 -93.02862549 3.97229004 C-86.58189292 1.44274251 -80.73672349 0.35702046 -73.8291626 0.17565918 C-72.7341339 0.14470941 -72.7341339 0.14470941 -71.61698341 0.11313438 C-69.20614717 0.04914545 -66.79531319 0.00000558 -64.38409424 -0.04724121 C-63.54042738 -0.06644056 -62.69676052 -0.08563992 -61.827528 -0.10542107 C-41.2155502 -0.56966041 -20.61226081 -0.31067347 0 0 Z " fill="#F8365E" transform="translate(341.54425048828125,400.3948974609375)"/>
<path d="M0 0 C3.80717372 0.17205072 7.35668529 -0.16970246 11.125 -0.65234375 C14.12069447 -0.91283892 16.88644696 -0.58305248 19.85546875 -0.171875 C25.00369536 0.49163868 30.19517514 0.77634966 35.37109375 1.15234375 C35.15470518 13.34879023 32.67389632 23.53965213 24.0703125 32.53515625 C18.82947241 37.52299026 14.08282956 40.00592297 7.24609375 42.21484375 C3.22730892 43.48563687 3.22730892 43.48563687 -0.62890625 45.15234375 C-0.62890625 44.49234375 -0.62890625 43.83234375 -0.62890625 43.15234375 C-27.68890625 43.15234375 -54.74890625 43.15234375 -82.62890625 43.15234375 C-82.62890625 38.53234375 -82.62890625 33.91234375 -82.62890625 29.15234375 C-81.96890625 29.15234375 -81.30890625 29.15234375 -80.62890625 29.15234375 C-80.54640625 28.32734375 -80.46390625 27.50234375 -80.37890625 26.65234375 C-79.46443356 22.38480454 -77.70667447 18.95997481 -75.62890625 15.15234375 C-74.96890625 15.15234375 -74.30890625 15.15234375 -73.62890625 15.15234375 C-73.29890625 14.16234375 -72.96890625 13.17234375 -72.62890625 12.15234375 C-63.11075133 3.25132606 -51.92783252 0.00494411 -39.19140625 -0.47265625 C-37.88586792 -0.52848877 -37.88586792 -0.52848877 -36.55395508 -0.58544922 C-24.28782959 -1.06988806 -12.23791876 -0.94536304 0 0 Z " fill="#5F47F8" transform="translate(300.62890625,461.84765625)"/>
<path d="M0 0 C4.60321483 0.17191448 6.96274663 0.35508435 10.54248047 3.40722656 C12.40879933 6.4569775 13.98828802 9.49655453 15.51757812 12.72070312 C17.82994129 17.13271104 20.86089909 21.08143419 23.76904297 25.11425781 C24.97716408 26.82481053 26.18295063 28.53701482 27.38623047 30.25097656 C27.95567383 31.06099121 28.52511719 31.87100586 29.11181641 32.70556641 C33.51261065 39.00762234 37.76495929 45.38931702 41.70654297 51.98925781 C41.63580566 51.33836182 41.56506836 50.68746582 41.4921875 50.0168457 C40.64664802 41.29025411 40.55316489 32.62561579 40.57617188 23.86791992 C40.58160219 21.39984185 40.57615823 18.93194026 40.56982422 16.46386719 C40.57048389 14.88769491 40.57176275 13.31152275 40.57373047 11.73535156 C40.57170624 11.00102402 40.56968201 10.26669647 40.56759644 9.51011658 C40.58199068 6.39675143 40.71422133 3.96622273 41.70654297 0.98925781 C47.64654297 0.98925781 53.58654297 0.98925781 59.70654297 0.98925781 C60.03654297 27.05925781 60.36654297 53.12925781 60.70654297 79.98925781 C54.25034798 81.28049681 48.21928879 82.41369151 41.70654297 80.98925781 C38.16586199 77.77045692 36.02360062 74.13753845 33.70654297 69.98925781 C32.71654297 68.99925781 32.71654297 68.99925781 31.70654297 67.98925781 C30.43343521 65.97245344 29.22934359 63.9215573 28.02294922 61.86425781 C26.67894825 59.70924293 26.67894825 59.70924293 23.70654297 57.98925781 C23.70654297 56.66925781 23.70654297 55.34925781 23.70654297 53.98925781 C22.71654297 53.65925781 21.72654297 53.32925781 20.70654297 52.98925781 C19.22998047 50.76269531 19.22998047 50.76269531 17.70654297 47.98925781 C16.58862148 46.19316595 15.46336859 44.40162045 14.33154297 42.61425781 C13.48462891 41.27234375 13.48462891 41.27234375 12.62060547 39.90332031 C10.40870866 36.53582028 8.04833022 33.26775997 5.70654297 29.98925781 C5.70654297 46.48925781 5.70654297 62.98925781 5.70654297 79.98925781 C1.51904291 80.68717449 -1.8888691 81.12573457 -6.04345703 81.11425781 C-7.45884766 81.118125 -7.45884766 81.118125 -8.90283203 81.12207031 C-11.29345703 80.98925781 -11.29345703 80.98925781 -13.29345703 79.98925781 C-13.97740741 59.12644485 -14.52657162 38.29774498 -13.91845703 17.42675781 C-13.89703644 16.64441772 -13.87561584 15.86207764 -13.85354614 15.05603027 C-13.4316544 0.24886477 -13.4316544 0.24886477 0 0 Z " fill="#020C2B" transform="translate(440.29345703125,431.0107421875)"/>
<path d="M0 0 C1.29406517 -0.00855011 1.29406517 -0.00855011 2.61427307 -0.01727295 C4.44946053 -0.0267451 6.28466517 -0.03326567 8.11987305 -0.03710938 C10.89858956 -0.04672681 13.67653825 -0.07769098 16.45507812 -0.109375 C39.08082183 -0.24662309 39.08082183 -0.24662309 47.03125 7.421875 C52.00362411 13.43620549 53.12282646 19.59739247 52.8203125 27.27734375 C52.00201468 34.84407294 49.47862096 41.23337383 43.50390625 46.203125 C40.80859375 47.39453125 40.80859375 47.39453125 38.50390625 48.203125 C42.30211487 55.38231479 46.3776278 62.33469087 50.66796875 69.23046875 C52.69565403 72.51359321 54.6235325 75.83412203 56.50390625 79.203125 C53.57904295 80.04504282 50.99648969 80.32131813 47.95703125 80.30078125 C47.11269531 80.29755859 46.26835938 80.29433594 45.3984375 80.29101562 C44.08939453 80.27844727 44.08939453 80.27844727 42.75390625 80.265625 C41.86574219 80.26111328 40.97757813 80.25660156 40.0625 80.25195312 C37.87623296 80.240199 35.69010446 80.22376749 33.50390625 80.203125 C33.16617188 79.43226563 32.8284375 78.66140625 32.48046875 77.8671875 C32.03445313 76.86429687 31.5884375 75.86140625 31.12890625 74.828125 C30.68804688 73.83039063 30.2471875 72.83265625 29.79296875 71.8046875 C28.63678181 69.12290021 28.63678181 69.12290021 26.50390625 67.203125 C25.67816005 65.6162318 24.89083918 64.00912585 24.12890625 62.390625 C21.45660822 56.84620918 21.45660822 56.84620918 17.50390625 52.203125 C14.03890625 51.708125 14.03890625 51.708125 10.50390625 51.203125 C10.17390625 60.113125 9.84390625 69.023125 9.50390625 78.203125 C10.16390625 78.533125 10.82390625 78.863125 11.50390625 79.203125 C-3.89609375 82.003125 -3.89609375 82.003125 -9.49609375 79.203125 C-9.51921767 69.05046349 -9.53700909 58.8978082 -9.54790592 48.74512577 C-9.55313464 44.03132767 -9.56023209 39.31754753 -9.5715332 34.60375977 C-9.58236248 30.05857096 -9.58837067 25.51339948 -9.59097099 20.96819878 C-9.59282517 19.23017542 -9.59644564 17.49215306 -9.60182381 15.75413704 C-9.60903478 13.32833905 -9.61008467 10.90261354 -9.60961914 8.47680664 C-9.61321442 7.75104431 -9.61680969 7.02528198 -9.62051392 6.27752686 C-9.60471301 -1.28207909 -6.69600337 0.03394148 0 0 Z M9.50390625 15.203125 C9.50390625 22.133125 9.50390625 29.063125 9.50390625 36.203125 C21.05104625 37.06537733 21.05104625 37.06537733 31.50390625 33.203125 C34.09726304 29.11662339 34.65240341 27.12380742 33.87890625 22.328125 C33.19828125 20.78125 33.19828125 20.78125 32.50390625 19.203125 C31.51390625 18.873125 30.52390625 18.543125 29.50390625 18.203125 C29.50390625 17.543125 29.50390625 16.883125 29.50390625 16.203125 C27.85864416 16.03091065 26.21264714 15.86571669 24.56640625 15.703125 C23.64988281 15.6103125 22.73335937 15.5175 21.7890625 15.421875 C17.70241113 15.14975553 13.59960746 15.203125 9.50390625 15.203125 Z " fill="#020C2A" transform="translate(579.49609375,431.796875)"/>
<path d="M0 0 C2.84183924 1.96222233 4.64633716 3.99671057 6.625 6.8125 C7.12 6.049375 7.615 5.28625 8.125 4.5 C11.89288253 0.44952628 15.70301282 -0.85832552 21.15625 -1.47265625 C26.37897365 -1.65356385 30.22610825 -1.25649425 34.625 1.8125 C40.43538465 7.35877626 41.63994316 13.50507103 41.86791992 21.3984375 C41.87424166 22.99478454 41.86974426 24.59120427 41.85546875 26.1875 C41.85501053 27.03803955 41.85455231 27.8885791 41.8540802 28.76489258 C41.85108385 30.54298314 41.84327729 32.32107171 41.83081055 34.09912109 C41.81236098 36.83310101 41.81030255 39.56674509 41.81054688 42.30078125 C41.80563791 44.03385712 41.79981232 45.76693069 41.79296875 47.5 C41.79185593 48.31968262 41.7907431 49.13936523 41.78959656 49.98388672 C41.74111224 55.69638776 41.74111224 55.69638776 40.625 56.8125 C37.92845146 56.88569621 35.25808542 56.90492537 32.5625 56.875 C31.42458008 56.86823242 31.42458008 56.86823242 30.26367188 56.86132812 C28.38408129 56.8495068 26.50453101 56.83157078 24.625 56.8125 C24.45728932 52.16794096 24.29674007 47.52321045 24.14282227 42.87817383 C24.08945321 41.29802796 24.03412784 39.71794689 23.97680664 38.13793945 C23.89475314 35.86684137 23.81973811 33.59560314 23.74609375 31.32421875 C23.71905869 30.61786789 23.69202362 29.91151703 23.66416931 29.1837616 C23.56954069 26.07382061 23.63126461 23.79370616 24.625 20.8125 C23.965 20.4825 23.305 20.1525 22.625 19.8125 C22 17.25 22 17.25 21.625 14.8125 C16.23758027 14.47155049 16.23758027 14.47155049 11.625 16.8125 C8.8389463 23.63488592 9.43942977 30.68008565 9.5625 37.9375 C9.59700905 40.44004543 9.62713141 42.94265615 9.65234375 45.4453125 C9.67929321 47.09877686 9.67929321 47.09877686 9.70678711 48.78564453 C9.625 51.8125 9.625 51.8125 8.625 56.8125 C3.345 56.8125 -1.935 56.8125 -7.375 56.8125 C-8.86585356 53.83079287 -8.44853733 51.1499196 -8.40234375 47.828125 C-8.38968914 46.40364834 -8.3773288 44.97916903 -8.36523438 43.5546875 C-8.34049625 41.31209061 -8.31260671 39.06963139 -8.27905273 36.82714844 C-8.24865874 34.66079887 -8.23101093 32.49462117 -8.21484375 30.328125 C-8.18958618 28.38341309 -8.18958618 28.38341309 -8.16381836 26.39941406 C-8.37479115 22.81604735 -8.96004657 20.10280116 -10.375 16.8125 C-11.035 16.4825 -11.695 16.1525 -12.375 15.8125 C-12.375 15.1525 -12.375 14.4925 -12.375 13.8125 C-14.025 13.8125 -15.675 13.8125 -17.375 13.8125 C-17.705 14.8025 -18.035 15.7925 -18.375 16.8125 C-19.035 16.8125 -19.695 16.8125 -20.375 16.8125 C-21.97659423 20.01568845 -21.57472665 23.50994472 -21.62109375 27.03125 C-21.65402107 28.70182838 -21.6872329 30.37240116 -21.72070312 32.04296875 C-21.76820817 34.68306773 -21.8126578 37.32314226 -21.85180664 39.96337891 C-21.89141106 42.50707329 -21.94297157 45.05030715 -21.99609375 47.59375 C-22.0045079 48.38648315 -22.01292206 49.17921631 -22.02159119 49.99597168 C-22.14830167 55.58580167 -22.14830167 55.58580167 -24.375 57.8125 C-27.34375 57.82421875 -27.34375 57.82421875 -30.875 57.5 C-32.0403125 57.40074219 -33.205625 57.30148437 -34.40625 57.19921875 C-37.375 56.8125 -37.375 56.8125 -39.375 55.8125 C-40.45127366 49.09120281 -40.50837709 42.44602878 -40.47265625 35.65234375 C-40.4712413 34.62186417 -40.46982635 33.59138458 -40.46836853 32.52967834 C-40.46281447 29.26975481 -40.4502707 26.00990243 -40.4375 22.75 C-40.43247906 20.52669371 -40.42791719 18.30338633 -40.42382812 16.08007812 C-40.41286013 10.65752507 -40.39562762 5.23502456 -40.375 -0.1875 C-34.435 -0.1875 -28.495 -0.1875 -22.375 -0.1875 C-22.045 1.1325 -21.715 2.4525 -21.375 3.8125 C-20.611875 3.173125 -19.84875 2.53375 -19.0625 1.875 C-13.49940924 -2.39434872 -6.44932894 -2.26920833 0 0 Z " fill="#030C2B" transform="translate(854.375,455.1875)"/>
<path d="M0 0 C6.27 0 12.54 0 19 0 C21.69263811 6.6345299 24.23069567 13.2941343 26.609375 20.046875 C27.10513031 21.44561859 27.10513031 21.44561859 27.61090088 22.87261963 C28.65917195 25.83107628 29.70477368 28.79046642 30.75 31.75 C32.11855773 35.62022937 33.48871804 39.48988867 34.859375 43.359375 C35.19594116 44.31171021 35.53250732 45.26404541 35.87927246 46.24523926 C37.65544622 51.25901163 39.45745993 56.26172485 41.29882812 61.25195312 C41.6702594 62.26082581 42.04169067 63.26969849 42.42437744 64.30914307 C43.1370209 66.23988508 43.85376157 68.1691211 44.57513428 70.09661865 C44.89355286 70.95966614 45.21197144 71.82271362 45.54003906 72.71191406 C45.82268616 73.46990295 46.10533325 74.22789185 46.39654541 75.0088501 C47 77 47 77 47 80 C46.32453125 79.98839844 45.6490625 79.97679687 44.953125 79.96484375 C43.61507813 79.95130859 43.61507813 79.95130859 42.25 79.9375 C41.36828125 79.92589844 40.4865625 79.91429687 39.578125 79.90234375 C37.0538902 79.90562311 37.0538902 79.90562311 34.89453125 80.546875 C32.20414299 81.1903493 30.09823307 80.60898279 27.609375 79.4921875 C24.58206944 76.68531681 24.3139642 72.63772126 23.60546875 68.71484375 C23.22519527 65.86770675 23.22519527 65.86770675 21 64 C18.7205639 63.73879044 18.7205639 63.73879044 16.09765625 63.83984375 C15.12505859 63.85080078 14.15246094 63.86175781 13.15039062 63.87304688 C12.13138672 63.89431641 11.11238281 63.91558594 10.0625 63.9375 C8.05345741 63.97194073 6.04433519 64.00207942 4.03515625 64.02734375 C3.1419165 64.04531006 2.24867676 64.06327637 1.32836914 64.08178711 C-1 64 -1 64 -4 63 C-4.16435547 63.85271484 -4.16435547 63.85271484 -4.33203125 64.72265625 C-5.37476328 69.80067647 -6.44685878 74.46108228 -9 79 C-12.89243566 80.22074595 -16.76132726 80.10342094 -20.8125 80.0625 C-21.97394531 80.05347656 -23.13539063 80.04445313 -24.33203125 80.03515625 C-25.65267578 80.01775391 -25.65267578 80.01775391 -27 80 C-28.2078975 76.3763075 -27.69261378 75.70033562 -26.1875 72.3125 C-24.31674948 67.90426089 -23.03776605 63.66994724 -22 59 C-21.34 59 -20.68 59 -20 59 C-20.495 57.515 -20.495 57.515 -21 56 C-20.34 56 -19.68 56 -19 56 C-19.495 54.515 -19.495 54.515 -20 53 C-19.1875 50.375 -19.1875 50.375 -18 48 C-17.01 47.505 -17.01 47.505 -16 47 C-15.896875 45.906875 -15.79375 44.81375 -15.6875 43.6875 C-15.1993055 38.65186417 -13.21126842 34.47919199 -11.1953125 29.8828125 C-10.21433874 27.51693461 -9.49138135 25.36243079 -8.9375 22.875 C-7.76416469 18.02521404 -5.91849996 13.59390811 -4 9 C-3.67 8.15824219 -3.34 7.31648438 -3 6.44921875 C-2.10378203 4.25418489 -1.06031885 2.12063769 0 0 Z M9 20 C7.66212755 24.29026517 6.33047065 28.58243422 5 32.875 C4.42765625 34.70998047 4.42765625 34.70998047 3.84375 36.58203125 C3.4828125 37.74863281 3.121875 38.91523438 2.75 40.1171875 C2.24726562 41.73536377 2.24726562 41.73536377 1.734375 43.38623047 C0.90983655 45.86841146 0.90983655 45.86841146 1 48 C6.61 48 12.22 48 18 48 C17.71125 46.5975 17.4225 45.195 17.125 43.75 C16.88136719 42.56664062 16.88136719 42.56664062 16.6328125 41.359375 C16.08779134 39.01262676 16.08779134 39.01262676 15.0234375 37.046875 C13.37640037 33.75280075 12.68035613 30.21358297 11.78125 26.65625 C11.06878409 24.2338659 10.15711547 22.23107069 9 20 Z " fill="#030C2B" transform="translate(981,432)"/>
<path d="M0 0 C5.61 0 11.22 0 17 0 C17.33 13.86 17.66 27.72 18 42 C22.9257705 36.83002074 22.9257705 36.83002074 24 33 C24.66 33 25.32 33 26 33 C26 32.34 26 31.68 26 31 C26.66 31 27.32 31 28 31 C28.268125 30.05125 28.53625 29.1025 28.8125 28.125 C30 25 30 25 33 23 C35.26831055 22.77294922 35.26831055 22.77294922 37.88671875 22.8046875 C38.82451172 22.81113281 39.76230469 22.81757813 40.72851562 22.82421875 C42.19321289 22.84935547 42.19321289 22.84935547 43.6875 22.875 C44.67556641 22.88402344 45.66363281 22.89304687 46.68164062 22.90234375 C49.12133765 22.9259157 51.56054697 22.95881978 54 23 C53.68796631 23.6182666 53.37593262 24.2365332 53.05444336 24.87353516 C52.37698405 26.23974738 51.73189897 27.62276383 51.12890625 29.0234375 C49.74104523 31.45339486 48.09194589 32.84983043 45.9375 34.625 C43.02124288 36.95485552 43.02124288 36.95485552 41 40 C40.34 40 39.68 40 39 40 C38.566875 40.928125 38.566875 40.928125 38.125 41.875 C37 44 37 44 35 46 C35.39781647 50.90640314 37.56117982 54.56117982 41 58 C42.08426356 59.67359942 43.14331392 61.36360685 44.1875 63.0625 C47.48424343 68.31235614 51.09371373 73.19134973 55 78 C53 80 53 80 49.4453125 80.23046875 C48.00514264 80.22647567 46.56497185 80.21171192 45.125 80.1875 C44.04412109 80.1865332 44.04412109 80.1865332 42.94140625 80.18554688 C35.98819202 80.12792355 35.98819202 80.12792355 33 79 C31.46020508 77.28173828 31.46020508 77.28173828 30.01953125 75.0703125 C29.49552734 74.27496094 28.97152344 73.47960937 28.43164062 72.66015625 C27.89732422 71.82355469 27.36300781 70.98695313 26.8125 70.125 C26.26658203 69.29613281 25.72066406 68.46726562 25.15820312 67.61328125 C21.15981615 61.47944844 21.15981615 61.47944844 20 58 C19.34 58 18.68 58 18 58 C18.00785522 58.94637329 18.00785522 58.94637329 18.01586914 59.91186523 C18.03657826 62.75373347 18.04964066 65.59558588 18.0625 68.4375 C18.07087891 69.43072266 18.07925781 70.42394531 18.08789062 71.44726562 C18.09272461 72.86362305 18.09272461 72.86362305 18.09765625 74.30859375 C18.10551147 75.62041626 18.10551147 75.62041626 18.11352539 76.95874023 C18 79 18 79 17 80 C13.72941715 80.07298372 10.46990381 79.9961013 7.19921875 79.9375 C4.55318512 79.98919296 2.50071028 80.20965206 0 81 C-1.17761574 77.46715278 -1.13990706 74.28200296 -1.12939453 70.60693359 C-1.13114685 69.85707687 -1.13289917 69.10722015 -1.13470459 68.3346405 C-1.13910637 65.85588264 -1.13619159 63.37719609 -1.1328125 60.8984375 C-1.13348588 59.17876166 -1.13445619 57.45908591 -1.13571167 55.7394104 C-1.13718625 52.13648573 -1.13504122 48.53358585 -1.13037109 44.93066406 C-1.12466538 40.30220766 -1.12795964 35.67380914 -1.13394356 31.04535484 C-1.13754831 27.49559082 -1.13641113 23.94584063 -1.13381577 20.3960762 C-1.1331467 18.68875751 -1.1339742 16.98143758 -1.13629532 15.27412033 C-1.13882137 12.89413852 -1.13498234 10.51425201 -1.12939453 8.13427734 C-1.13141876 7.42257889 -1.13344299 6.71088043 -1.13552856 5.97761536 C-1.11426453 1.11426453 -1.11426453 1.11426453 0 0 Z " fill="#020C2A" transform="translate(1030,432)"/>
<path d="M0 0 C6.6 0 13.2 0 20 0 C23.63 11.22 27.26 22.44 31 34 C33.35236543 27.53099508 35.52812065 21.46571473 37.2890625 14.8984375 C38 13 38 13 40 12 C40.65323886 9.71760106 40.65323886 9.71760106 41.0625 7.0625 C41.91390728 2.17218543 41.91390728 2.17218543 43 0 C48.94 0 54.88 0 61 0 C60.18820986 4.87074085 59.20438735 8.47517923 57.4453125 13.00390625 C57.18784744 13.67205856 56.93038239 14.34021088 56.66511536 15.02861023 C55.82378069 17.20869518 54.97458387 19.38561801 54.125 21.5625 C53.23984094 23.84594933 52.35635424 26.13004065 51.47306824 28.41421509 C50.87169023 29.96913867 50.26964481 31.52380428 49.66694641 33.07821655 C47.68452778 38.19871996 45.74368494 43.3331639 43.83203125 48.48046875 C43.33780191 49.80593582 42.84350019 51.13137589 42.34912109 52.45678711 C41.42679986 54.93033506 40.51322003 57.40655519 39.60400391 59.88500977 C36.42782175 68.37875144 33.30669277 76.21331963 24.890625 80.6328125 C20.67815061 82.38449657 17.02851028 82.14921927 12.5625 81.6875 C11.83095703 81.62626953 11.09941406 81.56503906 10.34570312 81.50195312 C8.56238958 81.35042975 6.78092049 81.17745066 5 81 C5.33 76.05 5.66 71.1 6 66 C12.435 65.505 12.435 65.505 19 65 C19.33 63.576875 19.66 62.15375 20 60.6875 C20.185625 59.88699219 20.37125 59.08648438 20.5625 58.26171875 C21.09495823 55.89304062 21.09495823 55.89304062 21 53 C20.34 52.67 19.68 52.34 19 52 C18.25976679 50.02604477 17.61238899 48.01728138 17 46 C14.93153921 39.49351258 12.52785745 33.15801593 9.98828125 26.8203125 C9 24 9 24 9 21 C8.34 20.67 7.68 20.34 7 20 C5 13.88888889 5 13.88888889 5 11 C4.34 10.67 3.68 10.34 3 10 C1.77919423 6.72398451 0.9388685 3.37139143 0 0 Z " fill="#020C2A" transform="translate(504,455)"/>
<path d="M0 0 C7.1709753 7.49692872 9.82075765 16.24819518 9.875 26.5 C9.83375 27.61375 9.7925 28.7275 9.75 29.875 C5.02399295 30.52686304 0.53077417 30.98618079 -4.25 30.875 C-6.78291625 30.875 -9.31485072 30.89024069 -11.84765625 30.91015625 C-13.66926989 30.91945698 -15.49088453 30.92856425 -17.3125 30.9375 C-18.23611328 30.94587891 -19.15972656 30.95425781 -20.11132812 30.96289062 C-20.99369141 30.96611328 -21.87605469 30.96933594 -22.78515625 30.97265625 C-23.593479 30.97789307 -24.40180176 30.98312988 -25.23461914 30.98852539 C-27.25 30.875 -27.25 30.875 -29.25 29.875 C-29.105625 30.4525 -28.96125 31.03 -28.8125 31.625 C-28.25 33.875 -28.25 33.875 -28.0625 36 C-27.36443441 38.14848746 -27.36443441 38.14848746 -24.75 39.1875 C-19.3624263 40.24577341 -14.43843003 39.60447668 -9.25 37.875 C-9.0025 36.885 -9.0025 36.885 -8.75 35.875 C-8.5025 34.885 -8.5025 34.885 -8.25 33.875 C-4.58012779 32.65170926 -1.91032178 32.99478994 1.9375 33.3125 C3.84595703 33.46525391 3.84595703 33.46525391 5.79296875 33.62109375 C6.76878906 33.70488281 7.74460937 33.78867187 8.75 33.875 C7.86889961 40.20130078 5.9109702 43.91983649 1.125 48.25 C-1.25 49.875 -1.25 49.875 -3.25 49.875 C-3.745 50.865 -3.745 50.865 -4.25 51.875 C-12.6402379 55.53228319 -21.5948205 55.52863792 -30.25 52.875 C-33.125 51.375 -33.125 51.375 -35.25 49.875 C-35.889375 49.60300781 -36.52875 49.33101563 -37.1875 49.05078125 C-39.75086035 47.58947166 -40.78735579 46.03540133 -42.375 43.5625 C-42.87257813 42.80324219 -43.37015625 42.04398437 -43.8828125 41.26171875 C-46.43293879 36.80992685 -47.5191615 33.0576207 -47.875 27.9375 C-47.94976563 26.93847656 -48.02453125 25.93945312 -48.1015625 24.91015625 C-48.41503698 18.50042804 -48.15792736 14.57901137 -45.25 8.875 C-44.59 8.545 -43.93 8.215 -43.25 7.875 C-42.15833725 5.94169397 -42.15833725 5.94169397 -41.25 3.875 C-40.92 3.215 -40.59 2.555 -40.25 1.875 C-39.59 1.875 -38.93 1.875 -38.25 1.875 C-38.25 1.215 -38.25 0.555 -38.25 -0.125 C-37.02493102 -0.77857278 -35.79470484 -1.42248233 -34.5625 -2.0625 C-33.87800781 -2.42214844 -33.19351563 -2.78179687 -32.48828125 -3.15234375 C-22.13012245 -7.65353318 -9.27469043 -6.06422067 0 0 Z M-28.25 11.875 C-29.58298974 14.49318456 -29.58298974 14.49318456 -30.25 16.875 C-26.16990228 17.84460497 -22.31393882 18.04026572 -18.125 18.0625 C-16.29582031 18.08376953 -16.29582031 18.08376953 -14.4296875 18.10546875 C-11.09274717 18.12629134 -11.09274717 18.12629134 -8.25 15.875 C-9.15873575 12.81834338 -9.92530825 11.15194297 -12.375 9.0625 C-18.51794139 6.52519812 -23.585251 6.79865549 -28.25 11.875 Z " fill="#040D2C" transform="translate(685.25,459.125)"/>
<path d="M0 0 C6.27452356 5.10910625 9.85570566 10.98993964 11 19 C11.20436132 23.01593761 11.18630519 26.98408802 11 31 C4.12945279 32.04352175 -2.61972617 32.1834088 -9.5625 32.1875 C-10.66013672 32.19974609 -11.75777344 32.21199219 -12.88867188 32.22460938 C-18.65806178 32.23504227 -23.56095402 31.97428785 -29 30 C-27.30866848 34.18853276 -25.92179096 37.30865678 -22.25 40.0625 C-17.95822509 41.30051199 -15.36343148 40.94541015 -11 40 C-10.34 39.34 -9.68 38.68 -9 38 C-8.01 37.67 -7.02 37.34 -6 37 C-6 36.34 -6 35.68 -6 35 C-0.72 35 4.56 35 10 35 C8.90210282 42.68528029 7.54188108 45.07030345 2 50 C-4.9596978 54.87466437 -14.18027274 56.93692494 -22.5703125 55.66796875 C-30.39237282 53.51753094 -37.58440858 49.93878652 -42 43 C-42 42.34 -42 41.68 -42 41 C-42.66 41 -43.32 41 -44 41 C-48.24258122 20.00466218 -48.24258122 20.00466218 -44 11 C-43.34 10.01 -42.68 9.02 -42 8 C-41.67 7.34 -41.34 6.68 -41 6 C-30.87745947 -5.6562588 -13.28343865 -7.66431686 0 0 Z M-27 14 C-27.6353254 16.10179053 -27.6353254 16.10179053 -28 18 C-17.46035948 19.07309426 -17.46035948 19.07309426 -7 18 C-7.27391902 14.7129718 -7.81831983 13.21006769 -10 10.6875 C-16.58525803 6.98329236 -22.45428606 7.74964333 -27 14 Z " fill="#040D2C" transform="translate(946,458)"/>
<path d="M0 0 C5.73719347 4.35235367 8.99448698 10.48486923 10.53515625 17.453125 C11.73503451 27.1073179 10.50182243 35.90139289 4.625 43.8125 C-1.33576848 50.65634529 -8.70405269 52.93786187 -17.5703125 54.0703125 C-24.41630485 54.40050506 -30.89042329 52.68218893 -37.0625 49.75 C-39.2265625 47.734375 -39.2265625 47.734375 -41.0625 45.75 C-42.0525 45.09 -43.0425 44.43 -44.0625 43.75 C-48.55867516 36.46971637 -51.19691425 26.36513854 -49.73828125 17.859375 C-47.03858688 9.43258333 -42.39844733 2.31591662 -34.5625 -1.9375 C-33.8096875 -2.35386719 -33.056875 -2.77023437 -32.28125 -3.19921875 C-22.00758659 -8.06473892 -9.40698209 -5.70120127 0 0 Z M-30.0625 14.75 C-32.76098475 21.27133815 -32.21246396 27.07050031 -30.0625 33.75 C-28.35194376 37.12768449 -28.35194376 37.12768449 -25.0625 38.75 C-19.74170905 39.47628007 -14.73583664 39.65532654 -10.0625 36.75 C-6.39513062 32.40348815 -5.92817969 27.26552772 -6.0625 21.75 C-6.87421005 17.51026448 -8.38523783 14.57092385 -11.125 11.25 C-18.2458964 7.61379758 -24.99259941 8.66611929 -30.0625 14.75 Z " fill="#020C2B" transform="translate(1131.0625,459.25)"/>
<path d="M0 0 C0.01458252 1.16571533 0.02916504 2.33143066 0.04418945 3.5324707 C0.10213117 7.85456122 0.17936394 12.17612847 0.26245117 16.49780273 C0.29572002 18.36881014 0.32374585 20.23991838 0.34643555 22.11108398 C0.37994588 24.79975383 0.43225865 27.48749798 0.48828125 30.17578125 C0.49467117 31.01337479 0.5010611 31.85096832 0.50764465 32.71394348 C0.48603471 37.02268558 0.48603471 37.02268558 2.39225769 40.72013855 C4.50735951 42.40388928 5.82184453 42.40178155 8.5 42.375 C9.2734375 42.38273437 10.046875 42.39046875 10.84375 42.3984375 C13.54054948 41.90011586 14.27794088 41.09853563 16 39 C17.31878366 31.60432118 17.08421203 24.17815995 17 16.6875 C16.9744771 14.37895333 16.9534491 12.07035141 16.9375 9.76171875 C16.92589844 8.75069092 16.91429687 7.73966309 16.90234375 6.69799805 C17 4 17 4 18 0 C24.27 0 30.54 0 37 0 C36.34 0.33 35.68 0.66 35 1 C35.24339111 2.38759521 35.24339111 2.38759521 35.49169922 3.80322266 C36.21634862 8.90708737 36.14311864 14.00269993 36.1328125 19.1484375 C36.13376923 20.20157135 36.13472595 21.2547052 36.13571167 22.3397522 C36.13638948 24.55348775 36.13456316 26.76722534 36.13037109 28.98095703 C36.12498499 32.38448475 36.13034603 35.78788243 36.13671875 39.19140625 C36.13605853 41.34375029 36.13477853 43.49609425 36.1328125 45.6484375 C36.13483673 46.67125824 36.13686096 47.69407898 36.13894653 48.74789429 C36.13421829 50.15538437 36.13421829 50.15538437 36.12939453 51.59130859 C36.12859894 52.42068939 36.12780334 53.25007019 36.12698364 54.10458374 C36 56 36 56 35 57 C32.13732433 57.07325168 29.299281 57.09238205 26.4375 57.0625 C25.63119141 57.05798828 24.82488281 57.05347656 23.99414062 57.04882812 C21.99606244 57.03700518 19.99802217 57.01906914 18 57 C18 55.35 18 53.7 18 52 C16.700625 52.928125 16.700625 52.928125 15.375 53.875 C9.63328221 57.49015564 3.74278632 58.83303577 -3 59 C-3.99 58.67 -4.98 58.34 -6 58 C-6 57.34 -6 56.68 -6 56 C-6.9075 55.7525 -7.815 55.505 -8.75 55.25 C-12.38969201 53.85011846 -13.80338932 53.21646564 -16 50 C-17.79529333 43.66547071 -18.1036955 37.53281643 -18 31 C-18.14820264 29.39402228 -18.31609034 27.78978141 -18.5 26.1875 C-19.44388675 17.382385 -19.06605343 8.77590409 -18 0 C-15.56288386 -0.19484938 -13.12562602 -0.38115178 -10.6875 -0.5625 C-9.99720703 -0.61857422 -9.30691406 -0.67464844 -8.59570312 -0.73242188 C-5.37487726 -0.96581505 -3.09672655 -1.03224218 0 0 Z " fill="#030D2B" transform="translate(771,455)"/>
<path d="M0 0 C4.12463275 3.06314638 5.66981141 6.20072583 7.21875 10.93359375 C7.21875 12.25359375 7.21875 13.57359375 7.21875 14.93359375 C1.93875 15.26359375 -3.34125 15.59359375 -8.78125 15.93359375 C-9.44125 14.28359375 -10.10125 12.63359375 -10.78125 10.93359375 C-15.10430487 8.13632295 -18.95044377 9.11481303 -23.78125 9.93359375 C-23.67511164 12.38584069 -23.67511164 12.38584069 -22.78125 14.93359375 C-17.96096931 17.42748415 -12.38935466 18.1968129 -7.10742188 19.2578125 C-1.38156119 20.50986737 3.06176016 22.47908807 7.03125 26.99609375 C9.54596038 31.09904227 9.79524981 35.25475473 9.21875 39.93359375 C7.53374294 45.77208954 4.57573598 49.09048365 -0.6796875 52.04296875 C-3.64290568 53.29875638 -6.5984497 53.60881821 -9.78125 53.93359375 C-10.27625 54.92359375 -10.27625 54.92359375 -10.78125 55.93359375 C-14.71194476 55.93359375 -18.46157855 55.52394927 -22.34375 54.99609375 C-23.01599609 54.90908203 -23.68824219 54.82207031 -24.38085938 54.73242188 C-27.3117271 54.33950515 -29.96801137 53.87133996 -32.78125 52.93359375 C-32.78125 52.27359375 -32.78125 51.61359375 -32.78125 50.93359375 C-33.35875 50.70671875 -33.93625 50.47984375 -34.53125 50.24609375 C-37.37864809 48.58511153 -38.90192193 46.61834814 -40.78125 43.93359375 C-40.78125 43.27359375 -40.78125 42.61359375 -40.78125 41.93359375 C-41.44125 41.60359375 -42.10125 41.27359375 -42.78125 40.93359375 C-43.40625 37.87109375 -43.40625 37.87109375 -43.78125 34.93359375 C-40.84222651 34.79877616 -37.90935441 34.69959959 -34.96875 34.62109375 C-34.13537109 34.57919922 -33.30199219 34.53730469 -32.44335938 34.49414062 C-30.12183232 34.44752362 -28.05407729 34.45161847 -25.78125 34.93359375 C-23.83203125 37.390625 -23.83203125 37.390625 -22.78125 39.93359375 C-20.44187093 41.10328328 -19.00755632 41.06723596 -16.40625 41.05859375 C-15.63539063 41.06117188 -14.86453125 41.06375 -14.0703125 41.06640625 C-11.8484311 40.93749163 -9.91506492 40.54743092 -7.78125 39.93359375 C-8.11125 38.28359375 -8.44125 36.63359375 -8.78125 34.93359375 C-9.63847656 34.74023438 -10.49570312 34.546875 -11.37890625 34.34765625 C-23.46121675 31.59610414 -23.46121675 31.59610414 -28.78125 29.93359375 C-29.60625 29.72734375 -30.43125 29.52109375 -31.28125 29.30859375 C-35.8933347 26.77194716 -40.03386857 22.48877739 -41.52734375 17.3828125 C-42.06729487 12.17436092 -39.82478281 6.94301678 -37.18359375 2.5078125 C-28.64642539 -7.07569404 -10.05142192 -6.0176276 0 0 Z " fill="#030D2B" transform="translate(738.78125,458.06640625)"/>
<path d="M0 0 C0.56869503 7.67738285 -1.04751758 14.01312119 -5.68359375 20.2734375 C-7.39474509 22.2532212 -9.16523603 24.13508732 -11 26 C-12.051875 27.2065625 -12.051875 27.2065625 -13.125 28.4375 C-15.43593642 30.36328035 -17.03696883 30.63865474 -20 31 C-20.76390549 31.16910385 -21.52781097 31.3382077 -22.31486511 31.51243591 C-25.11531313 32.02093844 -27.67995174 32.12018747 -30.5246582 32.11352539 C-31.60540115 32.11344986 -32.6861441 32.11337433 -33.79963684 32.11329651 C-34.9550145 32.10813522 -36.11039215 32.10297394 -37.30078125 32.09765625 C-39.08804878 32.09553383 -39.08804878 32.09553383 -40.91142273 32.09336853 C-44.71180751 32.08777728 -48.51213307 32.07522632 -52.3125 32.0625 C-54.89127519 32.05748387 -57.4700513 32.05292116 -60.04882812 32.04882812 C-66.36590557 32.03781071 -72.68294855 32.02108122 -79 32 C-80 30 -80 30 -79.58203125 28.1171875 C-75.99991762 17.67996301 -72.06598071 8.9331334 -61.8125 3.625 C-57.4279598 1.57114207 -53.53463786 0.87557443 -48.6965332 0.79467773 C-47.63896317 0.77473251 -46.58139313 0.75478729 -45.49177551 0.73423767 C-43.78848335 0.70916893 -43.78848335 0.70916893 -42.05078125 0.68359375 C-40.88242233 0.66281265 -39.71406342 0.64203156 -38.51029968 0.62062073 C-34.77775952 0.55524534 -31.04514887 0.49630644 -27.3125 0.4375 C-24.78580005 0.39430163 -22.25910718 0.35068692 -19.73242188 0.30664062 C-1.95982251 0 -1.95982251 0 0 0 Z " fill="#2BC9AB" transform="translate(297,515)"/>
<path d="M0 0 C3 1 3 1 3 1 Z " fill="#44396B" transform="translate(227,455)"/>
<path d="" fill="#44396B" transform="translate(0,0)"/>
<path d="M0 0 C2 1 2 1 2 1 Z " fill="#44396B" transform="translate(312,503)"/>
<path d="M0 0 C2 1 2 1 2 1 Z " fill="#44396B" transform="translate(320,498)"/>
<path d="" fill="#44396B" transform="translate(0,0)"/>
<path d="" fill="#44396B" transform="translate(0,0)"/>
<path d="" fill="#44396B" transform="translate(0,0)"/>
<path d="M0 0 C2 1 2 1 2 1 Z " fill="#44396B" transform="translate(926,468)"/>
<path d="M0 0 C2 1 2 1 2 1 Z " fill="#44396B" transform="translate(325,455)"/>
<path d="M0 0 C2 1 2 1 2 1 Z " fill="#44396B" transform="translate(317,455)"/>
<path d="M0 0 C2 1 2 1 2 1 Z " fill="#44396B" transform="translate(309,455)"/>
<path d="M0 0 C2 1 2 1 2 1 Z " fill="#44396B" transform="translate(276,455)"/>
<path d="M0 0 C2 1 2 1 2 1 Z " fill="#44396B" transform="translate(722,452)"/>
<path d="M0 0 C2 1 2 1 2 1 Z " fill="#44396B" transform="translate(664,452)"/>
<path d="" fill="#44396B" transform="translate(0,0)"/>
<path d="" fill="#44396B" transform="translate(0,0)"/>
<path d="" fill="#44396B" transform="translate(0,0)"/>
<path d="" fill="#44396B" transform="translate(0,0)"/>
<path d="" fill="#44396B" transform="translate(0,0)"/>
<path d="" fill="#44396B" transform="translate(0,0)"/>
<path d="" fill="#44396B" transform="translate(0,0)"/>
<path d="" fill="#44396B" transform="translate(0,0)"/>
<path d="" fill="#44396B" transform="translate(0,0)"/>
<path d="" fill="#44396B" transform="translate(0,0)"/>
<path d="" fill="#44396B" transform="translate(0,0)"/>
<path d="" fill="#44396B" transform="translate(0,0)"/>
<path d="" fill="#44396B" transform="translate(0,0)"/>
<path d="" fill="#44396B" transform="translate(0,0)"/>
<path d="" fill="#44396B" transform="translate(0,0)"/>
<path d="" fill="#44396B" transform="translate(0,0)"/>
<path d="" fill="#44396B" transform="translate(0,0)"/>
<path d="" fill="#44396B" transform="translate(0,0)"/>
<path d="" fill="#44396B" transform="translate(0,0)"/>
<path d="" fill="#44396B" transform="translate(0,0)"/>
<path d="" fill="#44396B" transform="translate(0,0)"/>
<path d="" fill="#44396B" transform="translate(0,0)"/>
<path d="" fill="#44396B" transform="translate(0,0)"/>
<path d="" fill="#44396B" transform="translate(0,0)"/>
<path d="" fill="#44396B" transform="translate(0,0)"/>
<path d="" fill="#44396B" transform="translate(0,0)"/>
<path d="" fill="#44396B" transform="translate(0,0)"/>
<path d="" fill="#44396B" transform="translate(0,0)"/>
<path d="" fill="#44396B" transform="translate(0,0)"/>
<path d="" fill="#44396B" transform="translate(0,0)"/>
<path d="" fill="#44396B" transform="translate(0,0)"/>
<path d="" fill="#44396B" transform="translate(0,0)"/>
<path d="" fill="#44396B" transform="translate(0,0)"/>
<path d="" fill="#44396B" transform="translate(0,0)"/>
<path d="" fill="#44396B" transform="translate(0,0)"/>
<path d="" fill="#44396B" transform="translate(0,0)"/>
<path d="" fill="#44396B" transform="translate(0,0)"/>
<path d="" fill="#44396B" transform="translate(0,0)"/>
<path d="" fill="#44396B" transform="translate(0,0)"/>
<path d="" fill="#44396B" transform="translate(0,0)"/>
<path d="" fill="#44396B" transform="translate(0,0)"/>
<path d="" fill="#44396B" transform="translate(0,0)"/>
<path d="" fill="#44396B" transform="translate(0,0)"/>
<path d="" fill="#44396B" transform="translate(0,0)"/>
<path d="" fill="#44396B" transform="translate(0,0)"/>
<path d="" fill="#44396B" transform="translate(0,0)"/>
<path d="" fill="#44396B" transform="translate(0,0)"/>
<path d="" fill="#44396B" transform="translate(0,0)"/>
<path d="" fill="#44396B" transform="translate(0,0)"/>
<path d="" fill="#44396B" transform="translate(0,0)"/>
<path d="" fill="#44396B" transform="translate(0,0)"/>
<path d="" fill="#44396B" transform="translate(0,0)"/>
<path d="" fill="#44396B" transform="translate(0,0)"/>
<path d="" fill="#44396B" transform="translate(0,0)"/>
<path d="" fill="#44396B" transform="translate(0,0)"/>
<path d="" fill="#44396B" transform="translate(0,0)"/>
<path d="" fill="#44396B" transform="translate(0,0)"/>
<path d="" fill="#44396B" transform="translate(0,0)"/>
<path d="" fill="#44396B" transform="translate(0,0)"/>
<path d="" fill="#44396B" transform="translate(0,0)"/>
<path d="" fill="#44396B" transform="translate(0,0)"/>
<path d="" fill="#44396B" transform="translate(0,0)"/>
<path d="" fill="#44396B" transform="translate(0,0)"/>
<path d="" fill="#44396B" transform="translate(0,0)"/>
<path d="" fill="#44396B" transform="translate(0,0)"/>
<path d="" fill="#44396B" transform="translate(0,0)"/>
<path d="" fill="#44396B" transform="translate(0,0)"/>
<path d="" fill="#44396B" transform="translate(0,0)"/>
<path d="" fill="#44396B" transform="translate(0,0)"/>
<path d="" fill="#44396B" transform="translate(0,0)"/>
<path d="" fill="#44396B" transform="translate(0,0)"/>
<path d="" fill="#44396B" transform="translate(0,0)"/>
<path d="" fill="#44396B" transform="translate(0,0)"/>
<path d="" fill="#44396B" transform="translate(0,0)"/>
<path d="" fill="#44396B" transform="translate(0,0)"/>
<path d="" fill="#44396B" transform="translate(0,0)"/>
<path d="" fill="#44396B" transform="translate(0,0)"/>
<path d="" fill="#44396B" transform="translate(0,0)"/>
<path d="" fill="#44396B" transform="translate(0,0)"/>
<path d="" fill="#44396B" transform="translate(0,0)"/>
<path d="" fill="#44396B" transform="translate(0,0)"/>
<path d="" fill="#44396B" transform="translate(0,0)"/>
<path d="" fill="#44396B" transform="translate(0,0)"/>
<path d="" fill="#44396B" transform="translate(0,0)"/>
<path d="" fill="#44396B" transform="translate(0,0)"/>
<path d="" fill="#44396B" transform="translate(0,0)"/>
<path d="" fill="#44396B" transform="translate(0,0)"/>
<path d="" fill="#44396B" transform="translate(0,0)"/>
<path d="" fill="#44396B" transform="translate(0,0)"/>
<path d="" fill="#44396B" transform="translate(0,0)"/>
<path d="" fill="#44396B" transform="translate(0,0)"/>
<path d="" fill="#44396B" transform="translate(0,0)"/>
<path d="" fill="#44396B" transform="translate(0,0)"/>
<path d="" fill="#44396B" transform="translate(0,0)"/>
<path d="" fill="#44396B" transform="translate(0,0)"/>
<path d="" fill="#44396B" transform="translate(0,0)"/>
<path d="" fill="#44396B" transform="translate(0,0)"/>
<path d="" fill="#44396B" transform="translate(0,0)"/>
<path d="" fill="#44396B" transform="translate(0,0)"/>
<path d="" fill="#44396B" transform="translate(0,0)"/>
<path d="" fill="#44396B" transform="translate(0,0)"/>
<path d="" fill="#44396B" transform="translate(0,0)"/>
<path d="" fill="#44396B" transform="translate(0,0)"/>
<path d="" fill="#44396B" transform="translate(0,0)"/>
<path d="" fill="#44396B" transform="translate(0,0)"/>
<path d="" fill="#44396B" transform="translate(0,0)"/>
<path d="" fill="#44396B" transform="translate(0,0)"/>
<path d="" fill="#44396B" transform="translate(0,0)"/>
<path d="" fill="#44396B" transform="translate(0,0)"/>
<path d="" fill="#44396B" transform="translate(0,0)"/>
<path d="" fill="#44396B" transform="translate(0,0)"/>
<path d="" fill="#44396B" transform="translate(0,0)"/>
<path d="" fill="#44396B" transform="translate(0,0)"/>
<path d="" fill="#44396B" transform="translate(0,0)"/>
<path d="" fill="#44396B" transform="translate(0,0)"/>
<path d="" fill="#44396B" transform="translate(0,0)"/>
<path d="" fill="#44396B" transform="translate(0,0)"/>
<path d="" fill="#44396B" transform="translate(0,0)"/>
<path d="" fill="#44396B" transform="translate(0,0)"/>
<path d="" fill="#44396B" transform="translate(0,0)"/>
<path d="" fill="#44396B" transform="translate(0,0)"/>
<path d="" fill="#44396B" transform="translate(0,0)"/>
<path d="" fill="#44396B" transform="translate(0,0)"/>
<path d="" fill="#44396B" transform="translate(0,0)"/>
<path d="" fill="#44396B" transform="translate(0,0)"/>
<path d="" fill="#44396B" transform="translate(0,0)"/>
<path d="" fill="#44396B" transform="translate(0,0)"/>
<path d="" fill="#44396B" transform="translate(0,0)"/>
<path d="" fill="#44396B" transform="translate(0,0)"/>
<path d="" fill="#44396B" transform="translate(0,0)"/>
<path d="" fill="#44396B" transform="translate(0,0)"/>
<path d="" fill="#44396B" transform="translate(0,0)"/>
<path d="" fill="#44396B" transform="translate(0,0)"/>
<path d="" fill="#44396B" transform="translate(0,0)"/>
<path d="" fill="#44396B" transform="translate(0,0)"/>
<path d="" fill="#44396B" transform="translate(0,0)"/>
<path d="" fill="#44396B" transform="translate(0,0)"/>
<path d="" fill="#44396B" transform="translate(0,0)"/>
<path d="" fill="#44396B" transform="translate(0,0)"/>
<path d="" fill="#44396B" transform="translate(0,0)"/>
<path d="" fill="#44396B" transform="translate(0,0)"/>
<path d="" fill="#44396B" transform="translate(0,0)"/>
<path d="" fill="#44396B" transform="translate(0,0)"/>
<path d="" fill="#44396B" transform="translate(0,0)"/>
<path d="" fill="#44396B" transform="translate(0,0)"/>
<path d="" fill="#44396B" transform="translate(0,0)"/>
<path d="" fill="#44396B" transform="translate(0,0)"/>
<path d="" fill="#44396B" transform="translate(0,0)"/>
<path d="" fill="#44396B" transform="translate(0,0)"/>
<path d="" fill="#44396B" transform="translate(0,0)"/>
<path d="" fill="#44396B" transform="translate(0,0)"/>
<path d="" fill="#44396B" transform="translate(0,0)"/>
<path d="" fill="#44396B" transform="translate(0,0)"/>
<path d="" fill="#44396B" transform="translate(0,0)"/>
<path d="" fill="#44396B" transform="translate(0,0)"/>
<path d="" fill="#44396B" transform="translate(0,0)"/>
<path d="" fill="#44396B" transform="translate(0,0)"/>
</svg>
